<?xml version="1.0" standalone="no"?>
<!DOCTYPE svg PUBLIC "-//W3C//DTD SVG 20010904//EN"
 "http://www.w3.org/TR/2001/REC-SVG-20010904/DTD/svg10.dtd">
<svg version="1.0" xmlns="http://www.w3.org/2000/svg"
 width="1024.000000pt" height="1024.000000pt" viewBox="0 0 1024.000000 1024.000000"
 preserveAspectRatio="xMidYMid meet">

<g transform="translate(0.000000,1024.000000) scale(0.100000,-0.100000)"
fill="#000000" stroke="none">
<path d="M5033 9052 c-204 -153 -423 -390 -567 -617 -58 -90 -184 -339 -205
-405 -18 -55 3 -22 34 55 36 88 115 239 169 325 62 99 128 190 137 190 5 0 9
6 9 14 0 8 8 21 18 28 9 7 25 24 33 38 34 52 275 287 334 326 16 10 40 29 52
40 13 12 36 27 52 34 27 11 34 8 89 -32 129 -94 290 -246 406 -385 43 -51 80
-93 82 -93 16 0 -110 144 -231 265 -119 119 -304 275 -327 275 -3 0 -42 -26
-85 -58z"/>
<path d="M4972 8603 c-164 -165 -292 -339 -383 -521 -34 -68 -59 -125 -57
-128 3 -2 19 27 36 66 81 184 244 411 419 584 64 64 123 116 129 116 32 0 246
-210 311 -304 13 -20 26 -36 29 -36 28 0 -269 321 -324 349 -21 11 -32 3 -160
-126z"/>
<path d="M5687 8550 c14 -27 65 -100 70 -100 7 0 -29 58 -55 88 -13 15 -20 20
-15 12z"/>
<path d="M5775 8414 c9 -17 26 -41 37 -55 17 -20 16 -18 -3 16 -12 22 -29 47
-37 55 -10 11 -10 6 3 -16z"/>
<path d="M5460 8366 c0 -2 8 -10 18 -17 15 -13 16 -12 3 4 -13 16 -21 21 -21
13z"/>
<path d="M5880 8235 c0 -5 5 -17 10 -25 5 -8 10 -10 10 -5 0 6 -5 17 -10 25
-5 8 -10 11 -10 5z"/>
<path d="M5906 8177 c3 -10 9 -15 12 -12 3 3 0 11 -7 18 -10 9 -11 8 -5 -6z"/>
<path d="M5596 8167 c3 -10 9 -15 12 -12 3 3 0 11 -7 18 -10 9 -11 8 -5 -6z"/>
<path d="M4196 7849 c-20 -62 -36 -117 -35 -123 0 -6 18 43 39 109 22 66 37
121 35 123 -2 2 -20 -47 -39 -109z"/>
<path d="M4501 7879 c-6 -18 -9 -34 -7 -36 2 -2 9 10 15 28 6 18 9 34 7 36 -2
2 -9 -10 -15 -28z"/>
<path d="M4481 7814 c0 -11 3 -14 6 -6 3 7 2 16 -1 19 -3 4 -6 -2 -5 -13z"/>
<path d="M4451 7723 c-1 -6 -4 -20 -7 -30 -5 -17 -5 -17 6 0 6 10 9 23 6 30
-3 9 -5 9 -5 0z"/>
<path d="M4142 7660 c0 -14 2 -19 5 -12 2 6 2 18 0 25 -3 6 -5 1 -5 -13z"/>
<path d="M4131 7614 c0 -11 3 -14 6 -6 3 7 2 16 -1 19 -3 4 -6 -2 -5 -13z"/>
<path d="M4121 7574 c0 -11 3 -14 6 -6 3 7 2 16 -1 19 -3 4 -6 -2 -5 -13z"/>
<path d="M4401 7524 c0 -11 3 -14 6 -6 3 7 2 16 -1 19 -3 4 -6 -2 -5 -13z"/>
<path d="M4391 7474 c0 -11 3 -14 6 -6 3 7 2 16 -1 19 -3 4 -6 -2 -5 -13z"/>
<path d="M4092 7420 c0 -14 2 -19 5 -12 2 6 2 18 0 25 -3 6 -5 1 -5 -13z"/>
<path d="M4082 7350 c0 -19 2 -27 5 -17 2 9 2 25 0 35 -3 9 -5 1 -5 -18z"/>
<path d="M4071 7264 c0 -11 3 -14 6 -6 3 7 2 16 -1 19 -3 4 -6 -2 -5 -13z"/>
<path d="M4352 7250 c0 -14 2 -19 5 -12 2 6 2 18 0 25 -3 6 -5 1 -5 -13z"/>
<path d="M4343 7155 c0 -22 2 -30 4 -17 2 12 2 30 0 40 -3 9 -5 -1 -4 -23z"/>
<path d="M4051 7024 c0 -11 3 -14 6 -6 3 7 2 16 -1 19 -3 4 -6 -2 -5 -13z"/>
<path d="M4053 6925 c0 -27 2 -38 4 -22 2 15 2 37 0 50 -2 12 -4 0 -4 -28z"/>
<path d="M2880 2760 l0 -950 190 0 c147 0 188 3 185 13 -2 6 -1 325 3 709 l7
696 107 -316 c59 -175 166 -494 239 -709 l133 -393 123 0 c68 0 123 1 123 3 0
1 16 47 36 102 46 129 262 758 370 1080 l84 250 0 -717 0 -718 190 0 190 0 0
950 0 950 -284 0 -285 0 -175 -527 c-96 -291 -188 -574 -206 -630 -17 -57 -33
-103 -35 -103 -2 0 -97 284 -211 630 l-208 630 -288 0 -288 0 0 -950z"/>
<path d="M5134 3688 c3 -13 29 -122 57 -242 28 -120 75 -309 104 -420 120
-456 267 -1008 294 -1106 l28 -105 234 -3 235 -2 82 337 c45 186 111 460 147
608 36 149 68 281 71 295 4 17 42 -131 114 -440 59 -256 126 -539 147 -630
l39 -165 235 -3 235 -2 27 107 c15 60 47 185 71 278 99 379 181 700 276 1080
55 220 103 408 106 418 5 16 -9 17 -205 17 l-211 0 -6 -27 c-3 -16 -10 -44
-15 -64 -5 -20 -13 -58 -19 -85 -5 -27 -30 -139 -55 -249 -37 -163 -93 -417
-141 -635 -4 -19 -9 -39 -10 -45 -1 -5 -14 -66 -29 -135 -36 -170 -36 -172
-46 -135 -16 56 -229 948 -280 1170 -16 72 -34 147 -40 168 l-10 37 -184 0
-183 0 -22 -97 c-12 -54 -44 -190 -72 -303 -108 -448 -228 -971 -228 -994 0
-39 -17 0 -34 79 -21 92 -70 313 -120 530 -104 456 -176 774 -176 779 0 3 -95
6 -211 6 l-211 0 6 -22z"/>
</g>
</svg>
